<svg width="144" height="144" viewBox="0 0 144 144" fill="none" xmlns="http://www.w3.org/2000/svg">
<path d="M0 15C0 6.71573 6.71573 0 15 0H129C137.284 0 144 6.71573 144 15V129C144 137.284 137.284 144 129 144H15C6.71573 144 0 137.284 0 129V15Z" fill="#8FF5B3"/>
<path d="M25 17.5H39.7686C42.0149 17.5 44.1428 18.5073 45.5674 20.2441L122.664 114.244C126.679 119.14 123.196 126.5 116.865 126.5H25C20.8579 126.5 17.5 123.142 17.5 119V25C17.5 20.8579 20.8579 17.5 25 17.5Z" fill="#3C6E4E" stroke="#3C6E4E" stroke-width="5"/>
</svg>
